<svg width="62" height="62" viewBox="0 0 62 62" fill="none" xmlns="http://www.w3.org/2000/svg">
<circle cx="31" cy="31" r="30" fill="#F9A8BB" stroke="#A93853" stroke-width="2"/>
<path d="M46.4959 36.9594C35.584 38.8671 23.7774 38.1337 15.8979 37.0306C13.9951 36.7642 12.588 39.1407 13.8717 40.5704C17.9857 45.1527 24.3484 51 31.3913 51C38.5322 51 44.656 45.3059 48.5404 39.8897C49.56 38.4682 48.2191 36.6582 46.4959 36.9594Z" stroke="#A93853" stroke-width="2"/>
<path d="M17 18L22.959 23.0965C23.9766 23.9668 23.8682 25.5718 22.7428 26.2974L17 30" stroke="#A93853" stroke-width="2" stroke-linecap="round"/>
<path d="M45 18L39.041 23.0965C38.0234 23.9668 38.1318 25.5718 39.2572 26.2974L45 30" stroke="#A93853" stroke-width="2" stroke-linecap="round"/>
</svg>
