<svg width="62" height="62" viewBox="0 0 62 62" fill="none" xmlns="http://www.w3.org/2000/svg">
<circle cx="31" cy="31" r="30" fill="#F9A8BB" stroke="#A93853" stroke-width="2"/>
<path d="M17 18L22.959 23.0965C23.9766 23.9668 23.8682 25.5718 22.7428 26.2974L17 30" stroke="#A93853" stroke-width="2" stroke-linecap="round"/>
<path d="M45 18L39.041 23.0965C38.0234 23.9668 38.1318 25.5718 39.2572 26.2974L45 30" stroke="#A93853" stroke-width="2" stroke-linecap="round"/>
<path d="M15 41.4999C15.5517 40.2483 18.1416 36.966 21.8803 41.4999C25.6191 46.0339 27.1055 43.3776 27.6897 41.4999C28.7931 39.6225 30.9935 36.9661 34.7323 41.4999C38.471 46.0338 40.9635 42.9167 41.7424 40.7915C42.3149 39.2295 44.6633 38.5245 47 40.7915" stroke="#A93853" stroke-width="2" stroke-linecap="round"/>
</svg>
