<svg width="62" height="62" viewBox="0 0 62 62" fill="none" xmlns="http://www.w3.org/2000/svg">
<circle cx="31" cy="31" r="30" fill="#F9A8BB" stroke="#A93853" stroke-width="2"/>
<path d="M21.6064 44.5605C28.3676 43.5377 34.5266 44.1189 39.3798 44.8913C41.2995 45.1968 42.8399 42.6503 41.5417 41.2036C38.9124 38.2737 35.2822 35.2586 30.5318 35.3593C25.4728 35.4666 22.0363 38.2855 19.5485 41.5528C18.48 42.9559 19.8626 44.8243 21.6064 44.5605Z" stroke="#A93853" stroke-width="2"/>
<path d="M36 19.641C37.3333 18.141 40.6 15.341 43 16.141" stroke="#A93853" stroke-width="2" stroke-linecap="round"/>
<path d="M25 19.641C23.6667 18.141 20.4 15.341 18 16.141" stroke="#A93853" stroke-width="2" stroke-linecap="round"/>
<path d="M13 26C15.5 28 21.3 30.8 24.5 26" stroke="#A93853" stroke-width="2" stroke-linecap="round"/>
<path d="M48 26C45.5 28 39.7 30.8 36.5 26" stroke="#A93853" stroke-width="2" stroke-linecap="round"/>
</svg>
